<svg width="55" height="55" viewBox="0 0 55 55" fill="none" xmlns="http://www.w3.org/2000/svg">
<rect width="55" height="54.9962" rx="27.4981" fill="#FFECEC"/>
<path d="M31.0006 37.75H25.0006C23.6806 37.75 22.5806 37.62 21.6506 37.34C21.3106 37.24 21.0906 36.91 21.1106 36.56C21.3606 33.57 24.3906 31.22 28.0006 31.22C31.6106 31.22 34.6306 33.56 34.8906 36.56C34.9206 36.92 34.7006 37.24 34.3506 37.34C33.4206 37.62 32.3206 37.75 31.0006 37.75ZM22.7206 36.06C23.3806 36.19 24.1306 36.25 25.0006 36.25H31.0006C31.8706 36.25 32.6206 36.19 33.2806 36.06C32.7506 34.14 30.5606 32.72 28.0006 32.72C25.4406 32.72 23.2506 34.14 22.7206 36.06Z" fill="#F53838"/>
<path d="M31 17H25C20 17 18 19 18 24V30C18 33.78 19.14 35.85 21.86 36.62C22.08 34.02 24.75 31.97 28 31.97C31.25 31.97 33.92 34.02 34.14 36.62C36.86 35.85 38 33.78 38 30V24C38 19 36 17 31 17ZM28 29.17C26.02 29.17 24.42 27.56 24.42 25.58C24.42 23.6 26.02 22 28 22C29.98 22 31.58 23.6 31.58 25.58C31.58 27.56 29.98 29.17 28 29.17Z" stroke="#F53838" stroke-width="1.5" stroke-linecap="round" stroke-linejoin="round"/>
<path d="M27.9999 29.92C25.6099 29.92 23.6699 27.97 23.6699 25.58C23.6699 23.19 25.6099 21.25 27.9999 21.25C30.3899 21.25 32.3299 23.19 32.3299 25.58C32.3299 27.97 30.3899 29.92 27.9999 29.92ZM27.9999 22.75C26.4399 22.75 25.1699 24.02 25.1699 25.58C25.1699 27.15 26.4399 28.42 27.9999 28.42C29.5599 28.42 30.8299 27.15 30.8299 25.58C30.8299 24.02 29.5599 22.75 27.9999 22.75Z" fill="#F53838"/>
</svg>
