<svg width="64" height="64" viewBox="0 0 64 64" fill="none" xmlns="http://www.w3.org/2000/svg">
<path d="M0 25H64V39H0V25Z" fill="#E6E7E8"/>
<path d="M54 10H10C3.373 10 0 14.925 0 21V25H64V21C64 14.925 60.627 10 54 10Z" fill="#29B473"/>
<path d="M0 43C0 49.075 3.373 54 10 54H54C60.627 54 64 49.075 64 43V39H0V43Z" fill="#EC1C24"/>
<path fill-rule="evenodd" clip-rule="evenodd" d="M29.4362 27.2C29.4232 27.21 29.4142 27.218 29.4072 27.22C28.7352 27.6 28.2102 28.128 27.7882 28.768C27.3453 29.4508 27.0396 30.2133 26.8882 31.013C26.7826 31.5586 26.7406 32.1147 26.7632 32.67C26.8102 33.742 27.0742 34.753 27.6082 35.69C27.7523 35.9473 27.9186 36.1915 28.1052 36.42C27.8972 36.375 27.0802 35.68 26.7462 35.269C25.9826 34.334 25.5805 33.1557 25.6132 31.949C25.6822 29.511 27.4202 27.667 29.4362 27.199" fill="#C32129"/>
<path fill-rule="evenodd" clip-rule="evenodd" d="M30.4515 25.717C30.5035 26.096 30.7695 26.398 31.1195 26.473C31.4575 26.547 31.8225 26.398 32.0235 26.028C32.2305 26.371 32.5225 26.554 32.9235 26.471C33.3185 26.39 33.5215 26.109 33.6095 25.727C33.6145 25.781 33.6275 25.832 33.6295 25.883C33.6455 26.204 33.5685 26.495 33.3655 26.748C33.1885 26.965 32.9635 27.09 32.6775 27.083C32.5635 27.0782 32.4517 27.0501 32.349 27.0004C32.2463 26.9507 32.1549 26.8805 32.0805 26.794L32.0275 26.737C31.9665 26.794 31.9105 26.857 31.8465 26.906C31.4765 27.195 30.9725 27.125 30.6795 26.742C30.4505 26.446 30.3825 26.108 30.4365 25.744C30.4365 25.738 30.4415 25.731 30.4415 25.726C30.4451 25.7234 30.4485 25.7204 30.4515 25.717" fill="#C32129"/>
<path fill-rule="evenodd" clip-rule="evenodd" d="M34.6133 27.2C34.6283 27.21 34.6373 27.218 34.6443 27.22C35.3163 27.6 35.8413 28.128 36.2633 28.768C36.7133 29.456 37.0023 30.207 37.1613 31.013C37.2683 31.559 37.3103 32.112 37.2863 32.67C37.2413 33.742 36.9773 34.753 36.4443 35.69C36.3066 35.9336 36.1491 36.1653 35.9733 36.383C35.9653 36.393 35.9533 36.407 35.9463 36.42C36.1553 36.375 36.9723 35.68 37.3053 35.269C37.6843 34.801 37.9733 34.286 38.1693 33.715C38.3623 33.1468 38.4533 32.5489 38.4383 31.949C38.3713 29.511 36.6313 27.667 34.6133 27.199" fill="#C32129"/>
<path fill-rule="evenodd" clip-rule="evenodd" d="M36.01 33.541C36.3575 32.35 36.3166 31.0792 35.893 29.913C35.5399 28.904 34.9094 28.015 34.074 27.348L34.094 27.382C34.6097 28.1332 34.9544 28.9882 35.104 29.887C35.184 30.368 35.214 30.856 35.184 31.343C35.102 32.756 34.641 34.027 33.764 35.143C33.466 35.522 33.123 35.863 32.743 36.162C32.73 36.169 32.719 36.179 32.699 36.194C32.753 33.327 32.804 30.471 32.858 27.615C32.505 27.514 32.249 27.287 32.023 27.008C31.795 27.287 31.541 27.515 31.188 27.615C31.242 30.471 31.293 33.327 31.347 36.194C31.327 36.178 31.316 36.169 31.303 36.162C30.9232 35.8643 30.5804 35.5222 30.282 35.143C29.405 34.027 28.945 32.756 28.859 31.343C28.83 30.856 28.859 30.368 28.942 29.887C29.0908 28.988 29.4356 28.1328 29.952 27.382L29.973 27.348C29.137 28.0146 28.5061 28.9037 28.153 29.913C27.73 31.0793 27.689 32.3499 28.036 33.541C28.499 35.138 29.475 36.328 30.94 37.118C30.44 37.287 29.549 37.466 28.518 37.305C28.526 37.307 28.533 37.312 28.539 37.315C29.063 37.53 29.609 37.658 30.176 37.702C30.576 37.733 30.979 37.722 31.377 37.663C31.414 37.658 31.432 37.668 31.451 37.697C31.632 37.986 31.815 38.272 31.996 38.561C32.006 38.573 32.014 38.585 32.023 38.6L32.05 38.561C32.231 38.272 32.415 37.986 32.596 37.697C32.616 37.668 32.632 37.658 32.669 37.663C33.067 37.722 33.47 37.733 33.871 37.702C34.4332 37.6592 34.9853 37.5287 35.507 37.315L35.527 37.305C34.7172 37.4324 33.8887 37.3683 33.108 37.118C34.572 36.328 35.552 35.138 36.012 33.541" fill="#C32129"/>
</svg>
