<svg width="140" height="42" viewBox="0 0 140 42" fill="none" xmlns="http://www.w3.org/2000/svg">
<g clip-path="url(#clip0_160_174)">
<path d="M51.8739 4.38389V30.0113H45.3223V-0.000244141L51.8739 4.38389Z" fill="#F53838"/>
<path d="M6.55167 4.38403H0V30.0115H6.55167V4.38403Z" fill="#F53838"/>
<path d="M33.3928 14.0291C32.5323 14.0288 31.6801 14.2022 30.885 14.5395C30.0898 14.8768 29.3673 15.3713 28.7587 15.9948C28.1501 16.6184 27.6673 17.3586 27.338 18.1734C27.0086 18.9881 26.839 19.8614 26.839 20.7434V23.2949H22.8777C18.7412 23.2955 14.7742 24.9798 11.8493 27.9773C8.92432 30.9749 7.28084 35.0403 7.28027 39.2795H13.8341C13.8341 36.8214 14.7869 34.4641 16.4829 32.726C18.1789 30.9879 20.4792 30.0114 22.8777 30.0114H35.8741C37.6117 30.0114 39.2781 29.304 40.5068 28.0448C41.7355 26.7857 42.4257 25.0778 42.4257 23.2971V14.0291H33.3928ZM35.8741 23.2949H33.3928V20.7434H35.8741V23.2949Z" fill="#F53838"/>
<path d="M134.89 32.5674H128.338V39.2817H134.89V32.5674Z" fill="#4F5665"/>
<path d="M140 4.38403V7.31701C140 13.3362 137.667 19.1088 133.514 23.3652C129.361 27.6216 123.728 30.0131 117.855 30.0137C116.667 30.0134 115.491 30.2529 114.394 30.7186C113.297 31.1842 112.3 31.8669 111.46 32.7276C110.62 33.5883 109.954 34.6101 109.499 35.7347C109.045 36.8592 108.811 38.0646 108.812 39.2817H102.258V27.05C99.6193 28.9816 96.4566 30.0172 93.2142 30.0115H81.6338V4.38184H88.1812V23.2972H93.2099C95.6079 23.2966 97.9075 22.3203 99.6033 20.5828C101.299 18.8453 102.252 16.4888 102.253 14.0313H108.805V26.2609C111.445 24.3308 114.608 23.296 117.851 23.3016C121.345 23.301 124.738 22.0985 127.486 19.8866C130.233 17.6747 132.177 14.5815 133.005 11.1027H124.405V17.3917H117.853V4.38403H140Z" fill="#4F5665"/>
<path d="M70.2665 4.38403H63.7148V11.0983H70.2665V4.38403Z" fill="#4F5665"/>
<path d="M39.9452 4.38403H33.3936V11.0983H39.9452V4.38403Z" fill="#F53838"/>
<path d="M79.4607 4.38184V14.0269C79.4607 18.2657 77.8177 22.3309 74.893 25.3282C71.9683 28.3254 68.0016 30.0093 63.8655 30.0093H54.5225V23.295H63.8676C65.055 23.2953 66.2309 23.0558 67.328 22.5903C68.4251 22.1247 69.4219 21.4422 70.2615 20.5817C71.1012 19.7212 71.7671 18.6997 72.2214 17.5753C72.6757 16.451 72.9093 15.246 72.9091 14.0291V4.38403L79.4607 4.38184Z" fill="#4F5665"/>
<path d="M20.3837 4.38403H13.832V11.0983H20.3837V4.38403Z" fill="#F53838"/>
</g>
<defs>
<clipPath id="clip0_160_174">
<rect width="140" height="42" fill="white"/>
</clipPath>
</defs>
</svg>
