<svg width="186" height="53" viewBox="0 0 186 53" fill="none" xmlns="http://www.w3.org/2000/svg">
<path d="M68.9187 5.46875V37.4363H60.2144V0L68.9187 5.46875Z" fill="#F53838"/>
<path d="M8.70436 5.46875H0V37.4363H8.70436V5.46875Z" fill="#F53838"/>
<path d="M44.3657 17.5C43.2224 17.4996 42.0903 17.716 41.0339 18.1367C39.9775 18.5575 39.0176 19.1744 38.209 19.9521C37.4004 20.7299 36.759 21.6533 36.3214 22.6696C35.8838 23.686 35.6585 24.7753 35.6585 25.8754V29.0582H30.3956C24.8999 29.0589 19.6296 31.1599 15.7436 34.899C11.8576 38.6381 9.67409 43.7093 9.67334 48.9973H18.3805C18.3805 45.9311 19.6464 42.9905 21.8997 40.8224C24.1529 38.6543 27.209 37.4363 30.3956 37.4363H47.6622C49.9708 37.4363 52.1847 36.5539 53.8171 34.9832C55.4495 33.4125 56.3666 31.2822 56.3666 29.0609V17.5H44.3657ZM47.6622 29.0582H44.3657V25.8754H47.6622V29.0582Z" fill="#F53838"/>
<path d="M179.211 40.6245H170.507V48.9999H179.211V40.6245Z" fill="#4F5665"/>
<path d="M186 5.4688V9.12739C186 16.6356 182.9 23.8364 177.383 29.1458C171.866 34.4552 164.382 37.4384 156.579 37.4391C155.001 37.4387 153.439 37.7375 151.981 38.3184C150.523 38.8993 149.198 39.7508 148.082 40.8244C146.967 41.898 146.082 43.1726 145.478 44.5754C144.874 45.9782 144.564 47.4817 144.564 49H135.857V33.7422C132.352 36.1516 128.15 37.4435 123.842 37.4364H108.456V5.46606H117.155V29.061H123.836C127.022 29.0602 130.077 27.8424 132.33 25.675C134.583 23.5077 135.85 20.5682 135.851 17.5028H144.556V32.7579C148.063 30.3504 152.265 29.0595 156.573 29.0664C161.216 29.0658 165.723 27.5657 169.374 24.8066C173.025 22.0475 175.607 18.1891 176.707 13.8497H165.281V21.6946H156.576V5.4688H186Z" fill="#4F5665"/>
<path d="M93.3552 5.46875H84.6509V13.8441H93.3552V5.46875Z" fill="#4F5665"/>
<path d="M53.0701 5.46875H44.3657V13.8441H53.0701V5.46875Z" fill="#F53838"/>
<path d="M105.569 5.46606V17.4973C105.569 22.7848 103.386 27.8556 99.5006 31.5944C95.6149 35.3332 90.3449 37.4336 84.8498 37.4336H72.4369V29.0582H84.8526C86.4302 29.0586 87.9923 28.7599 89.4499 28.1792C90.9075 27.5984 92.2318 26.7471 93.3473 25.6737C94.4628 24.6004 95.3476 23.3261 95.9512 21.9236C96.5547 20.5211 96.8652 19.018 96.8648 17.5V5.4688L105.569 5.46606Z" fill="#4F5665"/>
<path d="M27.0821 5.46875H18.3777V13.8441H27.0821V5.46875Z" fill="#F53838"/>
<path d="M25.2883 48.808C25.2883 49.256 25.2123 49.668 25.0603 50.044C24.9163 50.428 24.7163 50.756 24.4603 51.028C24.2043 51.308 23.9003 51.524 23.5483 51.676C23.1963 51.828 22.8163 51.904 22.4083 51.904H21.6763L21.6163 50.86H22.1683C22.5523 50.86 22.8803 50.8 23.1523 50.68C23.4163 50.568 23.6323 50.416 23.8003 50.224C23.9763 50.032 24.1043 49.812 24.1843 49.564C24.2643 49.324 24.3043 49.072 24.3043 48.808V45.532H25.2883V48.808ZM25.3243 44.056H24.1483V43.024H25.3243V44.056ZM26.7571 41.56H27.7411V49H26.7571V41.56ZM33.535 46.072C33.743 46.312 33.895 46.552 33.991 46.792C34.087 47.024 34.135 47.252 34.135 47.476C34.135 47.692 34.095 47.892 34.015 48.076C33.935 48.26 33.819 48.42 33.667 48.556C33.523 48.692 33.339 48.8 33.115 48.88C32.891 48.96 32.635 49 32.347 49H29.059L28.999 47.944H32.203C32.459 47.944 32.655 47.888 32.791 47.776C32.927 47.656 32.995 47.504 32.995 47.32C32.995 47.112 32.903 46.908 32.719 46.708L30.583 44.272L31.351 43.552L33.535 46.072ZM36.8188 48.808C36.8188 49.256 36.7468 49.668 36.6028 50.044C36.4588 50.428 36.2588 50.756 36.0028 51.028C35.7548 51.308 35.4548 51.524 35.1028 51.676C34.7587 51.828 34.3827 51.904 33.9747 51.904H33.2427L33.1827 50.86H33.7347C34.1187 50.86 34.4467 50.8 34.7188 50.68C34.9827 50.568 35.1988 50.416 35.3668 50.224C35.5428 50.032 35.6708 49.812 35.7508 49.564C35.8308 49.324 35.8708 49.072 35.8708 48.808V45.532H36.8548V47.104C36.8548 47.368 36.9388 47.576 37.1068 47.728C37.2828 47.872 37.5108 47.944 37.7908 47.944H37.9228C38.0988 47.944 38.1868 48.116 38.1868 48.46C38.1868 48.82 38.0988 49 37.9228 49H37.7908C37.6148 49 37.4388 48.968 37.2628 48.904C37.0868 48.84 36.9388 48.724 36.8188 48.556V48.808ZM39.01 47.944C39.298 47.944 39.522 47.868 39.682 47.716C39.85 47.564 39.934 47.348 39.934 47.068V45.532H40.918V47.116C40.918 47.724 40.754 48.192 40.426 48.52C40.106 48.84 39.658 49 39.082 49H37.918C37.814 49 37.746 48.96 37.714 48.88C37.674 48.792 37.654 48.664 37.654 48.496C37.654 48.304 37.674 48.164 37.714 48.076C37.746 47.988 37.814 47.944 37.918 47.944H39.01ZM39.91 52.924H38.806V51.916H39.91V52.924ZM40.702 51.376H39.61V50.368H40.702V51.376ZM39.094 51.376H38.002V50.368H39.094V51.376ZM43.9318 47.152C43.9318 46.912 43.9638 46.688 44.0278 46.48C44.0918 46.264 44.1838 46.048 44.3038 45.832C44.4318 45.616 44.5918 45.396 44.7838 45.172C44.9758 44.94 45.2038 44.688 45.4678 44.416L44.9158 43.864L45.5878 43.144C46.0838 43.632 46.4958 44.056 46.8238 44.416C47.1598 44.776 47.4278 45.1 47.6278 45.388C47.8358 45.676 47.9798 45.948 48.0598 46.204C48.1478 46.452 48.1918 46.712 48.1918 46.984C48.1918 47.272 48.1358 47.54 48.0238 47.788C47.9198 48.036 47.7678 48.252 47.5678 48.436C47.3758 48.612 47.1478 48.752 46.8838 48.856C46.6198 48.952 46.3318 49 46.0198 49C45.7078 49 45.4198 48.956 45.1558 48.868C44.8998 48.772 44.6798 48.644 44.4958 48.484C44.3198 48.324 44.1798 48.132 44.0758 47.908C43.9798 47.676 43.9318 47.424 43.9318 47.152ZM47.2078 46.936C47.2078 46.808 47.1918 46.684 47.1598 46.564C47.1278 46.444 47.0678 46.316 46.9798 46.18C46.8918 46.036 46.7718 45.88 46.6198 45.712C46.4758 45.536 46.2878 45.336 46.0558 45.112C45.8078 45.352 45.6078 45.564 45.4558 45.748C45.3038 45.932 45.1878 46.096 45.1077 46.24C45.0278 46.384 44.9718 46.516 44.9398 46.636C44.9158 46.748 44.9038 46.86 44.9038 46.972C44.9038 47.244 44.9998 47.476 45.1918 47.668C45.3918 47.852 45.6718 47.944 46.0318 47.944C46.3918 47.944 46.6758 47.844 46.8838 47.644C47.0998 47.444 47.2078 47.208 47.2078 46.936ZM53.7733 46.072C53.9813 46.312 54.1333 46.552 54.2293 46.792C54.3253 47.024 54.3733 47.252 54.3733 47.476C54.3733 47.692 54.3333 47.892 54.2533 48.076C54.1733 48.26 54.0573 48.42 53.9053 48.556C53.7613 48.692 53.5773 48.8 53.3533 48.88C53.1293 48.96 52.8733 49 52.5853 49H49.2973L49.2373 47.944H52.4413C52.6973 47.944 52.8933 47.888 53.0293 47.776C53.1653 47.656 53.2333 47.504 53.2333 47.32C53.2333 47.112 53.1413 46.908 52.9573 46.708L50.8213 44.272L51.5893 43.552L53.7733 46.072ZM55.761 41.56H56.745V49H55.761V41.56ZM62.5389 46.072C62.7469 46.312 62.8989 46.552 62.9949 46.792C63.0909 47.024 63.1389 47.252 63.1389 47.476C63.1389 47.692 63.0989 47.892 63.0189 48.076C62.9389 48.26 62.8229 48.42 62.6709 48.556C62.5269 48.692 62.3429 48.8 62.1189 48.88C61.8949 48.96 61.6389 49 61.3509 49H58.0629L58.0029 47.944H61.2069C61.4629 47.944 61.6589 47.888 61.7949 47.776C61.9309 47.656 61.9989 47.504 61.9989 47.32C61.9989 47.112 61.9069 46.908 61.7229 46.708L59.5869 44.272L60.3549 43.552L62.5389 46.072Z" fill="#F53838"/>
<path d="M70.0162 50.86C70.3922 50.86 70.7082 50.828 70.9642 50.764C71.2282 50.7 71.4402 50.612 71.6002 50.5C71.7602 50.388 71.8722 50.256 71.9362 50.104C72.0082 49.96 72.0442 49.808 72.0442 49.648C72.0442 49.472 71.9962 49.32 71.9002 49.192C71.8122 49.064 71.6522 49 71.4202 49H69.5482L69.6082 47.944H73.8322C74.0082 47.944 74.0962 48.116 74.0962 48.46C74.0962 48.82 74.0082 49 73.8322 49H72.7162C72.8202 49.088 72.8882 49.196 72.9202 49.324C72.9602 49.452 72.9802 49.6 72.9802 49.768C72.9802 49.984 72.9322 50.216 72.8362 50.464C72.7402 50.712 72.5802 50.94 72.3562 51.148C72.1402 51.364 71.8522 51.544 71.4922 51.688C71.1322 51.832 70.6842 51.904 70.1482 51.904H68.9122C68.0162 51.904 67.3202 51.628 66.8242 51.076C66.3282 50.524 66.0802 49.768 66.0802 48.808V46.684H67.0522V48.772C67.0522 49.396 67.2082 49.9 67.5202 50.284C67.8322 50.668 68.3442 50.86 69.0562 50.86H70.0162ZM74.3159 47.944C74.9479 47.944 75.2639 47.652 75.2639 47.068V45.532H76.2479V47.068C76.2479 47.228 76.2759 47.364 76.3319 47.476C76.3879 47.588 76.4599 47.68 76.5479 47.752C76.6359 47.816 76.7359 47.864 76.8479 47.896C76.9679 47.928 77.0879 47.944 77.2079 47.944C77.8959 47.944 78.2399 47.652 78.2399 47.068V45.532H79.2239V47.068C79.2239 47.396 79.3079 47.624 79.4759 47.752C79.6519 47.88 79.8559 47.944 80.0879 47.944C80.3599 47.944 80.5759 47.868 80.7359 47.716C80.8959 47.564 80.9759 47.348 80.9759 47.068V45.532H81.9599V47.116C81.9599 47.724 81.7959 48.192 81.4679 48.52C81.1399 48.84 80.6919 49 80.1239 49C79.8439 49 79.5759 48.948 79.3199 48.844C79.0719 48.74 78.8639 48.536 78.6959 48.232C78.5119 48.536 78.2879 48.74 78.0239 48.844C77.7599 48.948 77.4879 49 77.2079 49C76.9039 49 76.6199 48.948 76.3559 48.844C76.0999 48.74 75.8879 48.536 75.7199 48.232C75.5359 48.536 75.3199 48.74 75.0719 48.844C74.8239 48.948 74.5599 49 74.2799 49H73.8359C73.7319 49 73.6639 48.96 73.6319 48.88C73.5919 48.792 73.5719 48.664 73.5719 48.496C73.5719 48.304 73.5919 48.164 73.6319 48.076C73.6639 47.988 73.7319 47.944 73.8359 47.944H74.3159ZM85.6013 47.944C85.9213 47.944 86.1453 47.876 86.2733 47.74C86.4013 47.604 86.4653 47.472 86.4653 47.344C86.4653 47.272 86.4493 47.176 86.4173 47.056C86.3933 46.936 86.3413 46.752 86.2613 46.504C86.1813 46.256 86.0653 45.924 85.9133 45.508C85.7613 45.084 85.5653 44.536 85.3253 43.864L86.2613 43.48L87.5213 47.044C87.6333 47.372 87.7653 47.604 87.9173 47.74C88.0693 47.876 88.2933 47.944 88.5893 47.944H88.7453C88.9213 47.944 89.0093 48.116 89.0093 48.46C89.0093 48.82 88.9213 49 88.7453 49H88.5893C88.3253 49 88.0693 48.952 87.8213 48.856C87.5813 48.76 87.3613 48.548 87.1613 48.22C86.9933 48.524 86.7813 48.732 86.5253 48.844C86.2773 48.948 86.0053 49 85.7093 49H83.1293L83.0693 47.944H85.6013ZM89.6182 47.944C90.2422 47.944 90.5542 47.652 90.5542 47.068V45.532H91.5382V47.068C91.5382 47.228 91.5622 47.364 91.6102 47.476C91.6662 47.588 91.7382 47.68 91.8262 47.752C91.9142 47.816 92.0142 47.864 92.1262 47.896C92.2462 47.928 92.3662 47.944 92.4862 47.944H92.8222C93.0062 47.944 93.0982 48.116 93.0982 48.46C93.0982 48.82 93.0062 49 92.8222 49H92.4502C92.1622 49 91.8902 48.948 91.6342 48.844C91.3862 48.74 91.1782 48.536 91.0102 48.232C90.8262 48.536 90.6142 48.74 90.3742 48.844C90.1422 48.948 89.8902 49 89.6182 49H88.7422C88.6382 49 88.5702 48.96 88.5382 48.88C88.4982 48.792 88.4782 48.664 88.4782 48.496C88.4782 48.304 88.4982 48.164 88.5382 48.076C88.5702 47.988 88.6382 47.944 88.7422 47.944H89.6182ZM91.5382 44.056H90.3622V43.024H91.5382V44.056ZM93.8883 47.944V46.912C93.8883 46.624 93.9163 46.332 93.9723 46.036C94.0363 45.74 94.1403 45.476 94.2843 45.244C94.4363 45.004 94.6403 44.808 94.8963 44.656C95.1523 44.504 95.4763 44.428 95.8683 44.428C96.1643 44.428 96.4243 44.48 96.6483 44.584C96.8803 44.68 97.0723 44.812 97.2243 44.98C97.3843 45.148 97.5003 45.348 97.5723 45.58C97.6523 45.804 97.6923 46.048 97.6923 46.312C97.6923 46.688 97.6123 47.032 97.4523 47.344C97.3003 47.656 97.0923 47.928 96.8283 48.16C96.5643 48.392 96.2563 48.58 95.9043 48.724C95.5523 48.86 95.1803 48.94 94.7883 48.964V49.816C94.7883 50.176 94.8563 50.428 94.9923 50.572C95.1283 50.724 95.3123 50.82 95.5443 50.86L96.6243 49.456C96.9123 49.096 97.1603 48.816 97.3683 48.616C97.5763 48.408 97.7723 48.256 97.9563 48.16C98.1403 48.064 98.3283 48.004 98.5203 47.98C98.7123 47.956 98.9403 47.944 99.2043 47.944C99.3083 47.944 99.3763 47.988 99.4083 48.076C99.4483 48.156 99.4683 48.284 99.4683 48.46C99.4683 48.644 99.4483 48.78 99.4083 48.868C99.3763 48.956 99.3083 49 99.2043 49C98.9803 49 98.7843 49.008 98.6163 49.024C98.4563 49.04 98.2923 49.092 98.1243 49.18C97.9643 49.268 97.7923 49.4 97.6083 49.576C97.4323 49.76 97.2203 50.012 96.9723 50.332L95.7963 51.904C95.5243 51.904 95.2723 51.864 95.0403 51.784C94.8083 51.712 94.6043 51.592 94.4283 51.424C94.2603 51.264 94.1283 51.056 94.0323 50.8C93.9363 50.544 93.8883 50.24 93.8883 49.888V49H92.8203C92.7163 49 92.6483 48.96 92.6163 48.88C92.5763 48.792 92.5563 48.664 92.5563 48.496C92.5563 48.304 92.5763 48.164 92.6163 48.076C92.6483 47.988 92.7163 47.944 92.8203 47.944H93.8883ZM94.7883 47.98C95.1323 47.964 95.4283 47.912 95.6763 47.824C95.9243 47.728 96.1283 47.612 96.2883 47.476C96.4563 47.332 96.5803 47.176 96.6603 47.008C96.7403 46.84 96.7803 46.668 96.7803 46.492C96.7803 46.188 96.7003 45.94 96.5403 45.748C96.3883 45.556 96.1523 45.46 95.8323 45.46C95.4963 45.46 95.2363 45.58 95.0523 45.82C94.8763 46.06 94.7883 46.408 94.7883 46.864V47.98ZM99.363 47.944C99.971 47.944 100.275 47.688 100.275 47.176V46.804C100.275 46.124 100.451 45.588 100.803 45.196C101.163 44.796 101.659 44.596 102.291 44.596C102.619 44.596 102.907 44.652 103.155 44.764C103.403 44.868 103.611 45.016 103.779 45.208C103.947 45.4 104.071 45.632 104.151 45.904C104.239 46.168 104.283 46.46 104.283 46.78C104.283 47.484 104.103 48.032 103.743 48.424C103.383 48.808 102.887 49 102.255 49C101.935 49 101.627 48.94 101.331 48.82C101.043 48.692 100.819 48.48 100.659 48.184C100.587 48.352 100.499 48.492 100.395 48.604C100.291 48.708 100.183 48.792 100.071 48.856C99.959 48.912 99.839 48.952 99.711 48.976C99.591 48.992 99.475 49 99.363 49H99.207C99.103 49 99.035 48.96 99.003 48.88C98.963 48.792 98.943 48.664 98.943 48.496C98.943 48.304 98.963 48.164 99.003 48.076C99.035 47.988 99.103 47.944 99.207 47.944H99.363ZM103.323 46.852C103.323 46.5 103.243 46.212 103.083 45.988C102.931 45.764 102.659 45.652 102.267 45.652C101.907 45.652 101.639 45.76 101.463 45.976C101.295 46.192 101.211 46.496 101.211 46.888C101.211 47.24 101.307 47.504 101.499 47.68C101.699 47.856 101.951 47.944 102.255 47.944C102.615 47.944 102.883 47.852 103.059 47.668C103.235 47.476 103.323 47.204 103.323 46.852ZM113.355 47.944C113.971 47.944 114.279 47.652 114.279 47.068V45.532H115.263V47.068C115.263 47.228 115.291 47.364 115.347 47.476C115.403 47.588 115.475 47.68 115.563 47.752C115.651 47.816 115.751 47.864 115.863 47.896C115.983 47.928 116.103 47.944 116.223 47.944H116.439C116.543 47.944 116.611 47.988 116.643 48.076C116.683 48.156 116.703 48.284 116.703 48.46C116.703 48.644 116.683 48.78 116.643 48.868C116.611 48.956 116.543 49 116.439 49H116.199C115.903 49 115.627 48.948 115.371 48.844C115.123 48.74 114.915 48.536 114.747 48.232C114.563 48.536 114.351 48.74 114.111 48.844C113.871 48.948 113.619 49 113.355 49H109.191C108.863 49 108.579 48.952 108.339 48.856C108.107 48.752 107.915 48.616 107.763 48.448C107.619 48.28 107.511 48.084 107.439 47.86C107.375 47.636 107.343 47.4 107.343 47.152V45.496H108.327V46.912C108.327 47.224 108.403 47.476 108.555 47.668C108.707 47.852 108.995 47.944 109.419 47.944H113.355ZM112.647 44.512H111.555V43.504H112.647V44.512ZM111.039 44.512H109.947V43.504H111.039V44.512ZM119.506 47.944C119.802 47.944 120.006 47.884 120.118 47.764C120.23 47.644 120.286 47.496 120.286 47.32C120.286 47.192 120.262 47.06 120.214 46.924C120.174 46.78 120.062 46.616 119.878 46.432L117.43 43.996V42.904L121.414 41.368L121.642 42.352L118.402 43.588L120.382 45.58C120.574 45.78 120.73 45.96 120.85 46.12C120.978 46.28 121.078 46.436 121.15 46.588C121.222 46.732 121.27 46.876 121.294 47.02C121.326 47.164 121.342 47.312 121.342 47.464C121.342 47.736 121.298 47.968 121.21 48.16C121.122 48.352 121.002 48.512 120.85 48.64C120.698 48.76 120.514 48.852 120.298 48.916C120.09 48.972 119.862 49 119.614 49H116.434C116.33 49 116.262 48.96 116.23 48.88C116.19 48.792 116.17 48.664 116.17 48.496C116.17 48.304 116.19 48.164 116.23 48.076C116.262 47.988 116.33 47.944 116.434 47.944H119.506ZM124.123 48.808C124.123 49.256 124.051 49.668 123.907 50.044C123.763 50.428 123.563 50.756 123.307 51.028C123.059 51.308 122.759 51.524 122.407 51.676C122.063 51.828 121.687 51.904 121.279 51.904H120.547L120.487 50.86H121.039C121.423 50.86 121.751 50.8 122.023 50.68C122.287 50.568 122.503 50.416 122.671 50.224C122.847 50.032 122.975 49.812 123.055 49.564C123.135 49.324 123.175 49.072 123.175 48.808V45.532H124.159V47.104C124.159 47.368 124.243 47.576 124.411 47.728C124.587 47.872 124.815 47.944 125.095 47.944H125.227C125.403 47.944 125.491 48.116 125.491 48.46C125.491 48.82 125.403 49 125.227 49H125.095C124.919 49 124.743 48.968 124.567 48.904C124.391 48.84 124.243 48.724 124.123 48.556V48.808ZM125.703 47.944C126.335 47.944 126.651 47.652 126.651 47.068V45.532H127.635V47.068C127.635 47.228 127.663 47.364 127.719 47.476C127.775 47.588 127.847 47.68 127.935 47.752C128.023 47.816 128.123 47.864 128.235 47.896C128.355 47.928 128.475 47.944 128.595 47.944C129.283 47.944 129.627 47.652 129.627 47.068V45.532H130.611V47.068C130.611 47.396 130.695 47.624 130.863 47.752C131.039 47.88 131.243 47.944 131.475 47.944C131.747 47.944 131.963 47.868 132.123 47.716C132.283 47.564 132.363 47.348 132.363 47.068V45.532H133.347V47.116C133.347 47.724 133.183 48.192 132.855 48.52C132.527 48.84 132.079 49 131.511 49C131.231 49 130.963 48.948 130.707 48.844C130.459 48.74 130.251 48.536 130.083 48.232C129.899 48.536 129.675 48.74 129.411 48.844C129.147 48.948 128.875 49 128.595 49C128.291 49 128.007 48.948 127.743 48.844C127.487 48.74 127.275 48.536 127.107 48.232C126.923 48.536 126.707 48.74 126.459 48.844C126.211 48.948 125.947 49 125.667 49H125.223C125.119 49 125.051 48.96 125.019 48.88C124.979 48.792 124.959 48.664 124.959 48.496C124.959 48.304 124.979 48.164 125.019 48.076C125.051 47.988 125.119 47.944 125.223 47.944H125.703ZM130.671 42.508H129.567V41.512H130.671V42.508ZM131.463 44.056H130.371V43.048H131.463V44.056ZM129.855 44.056H128.763V43.048H129.855V44.056Z" fill="#4F5665"/>
</svg>
