<svg width="139" height="38" viewBox="0 0 139 38" fill="none" xmlns="http://www.w3.org/2000/svg">
<path d="M51.5039 4.24107V29.0322H44.999V0L51.5039 4.24107Z" fill="#F53838"/>
<path d="M6.50487 4.24109H0V29.0323H6.50487V4.24109Z" fill="#F53838"/>
<path d="M33.1546 13.5714C32.3002 13.5711 31.4541 13.7389 30.6646 14.0652C29.8752 14.3915 29.1578 14.8699 28.5536 15.4731C27.9493 16.0762 27.47 16.7923 27.1429 17.5805C26.8159 18.3687 26.6476 19.2135 26.6476 20.0666V22.5349H22.7145C18.6075 22.5355 14.6689 24.1648 11.7649 27.0645C8.86082 29.9643 7.22908 33.897 7.22852 37.9979H13.7355C13.7355 35.62 14.6815 33.3396 16.3654 31.6582C18.0493 29.9768 20.3331 29.0322 22.7145 29.0322H35.6181C37.3433 29.0322 38.9978 28.3479 40.2177 27.1298C41.4376 25.9117 42.1229 24.2597 42.1229 22.537V13.5714H33.1546ZM35.6181 22.5349H33.1546V20.0666H35.6181V22.5349Z" fill="#F53838"/>
<path d="M133.927 31.5048H127.422V38H133.927V31.5048Z" fill="#4F5665"/>
<path d="M139 4.24108V7.07835C139 12.9011 136.684 18.4854 132.56 22.6028C128.437 26.7203 122.845 29.0338 117.013 29.0344C115.834 29.0341 114.666 29.2658 113.577 29.7163C112.487 30.1667 111.498 30.8271 110.664 31.6597C109.83 32.4923 109.168 33.4808 108.717 34.5687C108.266 35.6565 108.034 36.8225 108.034 38H101.527V26.1674C98.9079 28.0359 95.7678 29.0378 92.5485 29.0322H81.0508V4.23895H87.5514V22.537H92.5442C94.925 22.5365 97.2082 21.592 98.8919 19.9112C100.576 18.2304 101.522 15.9508 101.523 13.5735H108.028V25.404C110.649 23.537 113.79 22.5359 117.009 22.5413C120.478 22.5408 123.847 21.3774 126.575 19.2377C129.303 17.098 131.233 14.1058 132.056 10.7405H123.516V16.8243H117.011V4.24108H139Z" fill="#4F5665"/>
<path d="M69.7656 4.24109H63.2607V10.7363H69.7656V4.24109Z" fill="#4F5665"/>
<path d="M39.6601 4.24109H33.1553V10.7363H39.6601V4.24109Z" fill="#F53838"/>
<path d="M78.8929 4.23895V13.5693C78.8929 17.6698 77.2616 21.6023 74.3578 24.5018C71.4541 27.4012 67.5157 29.0301 63.4091 29.0301H54.1328V22.5349H63.4112C64.5902 22.5352 65.7576 22.3035 66.8468 21.8532C67.9361 21.4028 68.9258 20.7426 69.7594 19.9102C70.5931 19.0778 71.2543 18.0896 71.7053 17.0019C72.1564 15.9143 72.3884 14.7486 72.3881 13.5714V4.24108L78.8929 4.23895Z" fill="#4F5665"/>
<path d="M20.2393 4.24109H13.7344V10.7363H20.2393V4.24109Z" fill="#F53838"/>
</svg>
