<svg width="55" height="55" viewBox="0 0 55 55" fill="none" xmlns="http://www.w3.org/2000/svg">
<rect width="55" height="54.9962" rx="27.4981" fill="#FFECEC"/>
<path d="M27.9995 34.3701C26.2095 34.3701 24.4195 33.6901 23.0495 32.3201C20.3195 29.5901 20.3195 25.1501 23.0495 22.4201C25.7795 19.6901 30.2195 19.6901 32.9495 22.4201C35.6795 25.1501 35.6795 29.5901 32.9495 32.3201C31.5795 33.6901 29.7895 34.3701 27.9995 34.3701ZM27.9995 21.8701C26.5895 21.8701 25.1795 22.4101 24.1095 23.4801C21.9695 25.6301 21.9695 29.1101 24.1095 31.2601C26.2595 33.4101 29.7495 33.4001 31.8895 31.2601C34.0295 29.1101 34.0295 25.6301 31.8895 23.4801C30.8195 22.4101 29.4095 21.8701 27.9995 21.8701Z" fill="#F53838"/>
<path d="M24.25 37.39C24.16 37.39 24.06 37.37 23.97 37.34C21.72 36.44 19.9 34.85 18.68 32.75C17.5 30.7 17.03 28.38 17.34 26.02C17.39 25.61 17.77 25.32 18.18 25.37C18.59 25.42 18.88 25.8 18.83 26.21C18.57 28.23 18.97 30.23 19.98 31.99C21.02 33.79 22.59 35.16 24.52 35.93C24.9 36.09 25.09 36.52 24.94 36.91C24.83 37.21 24.54 37.39 24.25 37.39Z" fill="#F53838"/>
<path d="M21.8496 20.23C21.6296 20.23 21.4096 20.13 21.2596 19.94C20.9996 19.61 21.0596 19.14 21.3896 18.89C23.2996 17.4 25.5796 16.61 27.9996 16.61C30.3596 16.61 32.6096 17.37 34.4996 18.81C34.8296 19.06 34.8896 19.53 34.6396 19.86C34.3896 20.19 33.9196 20.25 33.5896 20C31.9696 18.76 30.0396 18.11 27.9996 18.11C25.9196 18.11 23.9496 18.79 22.3096 20.07C22.1696 20.18 22.0096 20.23 21.8496 20.23Z" fill="#F53838"/>
<path d="M31.7507 37.39C31.4507 37.39 31.1707 37.21 31.0507 36.92C30.9007 36.54 31.0807 36.1 31.4707 35.94C33.4007 35.16 34.9707 33.8 36.0107 32C37.0307 30.24 37.4307 28.24 37.1607 26.22C37.1107 25.81 37.4007 25.43 37.8107 25.38C38.2107 25.33 38.6007 25.62 38.6507 26.03C38.9507 28.38 38.4907 30.71 37.3107 32.76C36.1007 34.86 34.2707 36.44 32.0207 37.35C31.9407 37.37 31.8507 37.39 31.7507 37.39Z" fill="#F53838"/>
</svg>
