<svg width="55" height="55" viewBox="0 0 55 55" fill="none" xmlns="http://www.w3.org/2000/svg">
<rect width="55" height="54.9962" rx="27.4981" fill="#FFECEC"/>
<path d="M36.6196 28.07C36.2396 28.07 35.9196 27.78 35.8696 27.4C35.6296 25.14 34.4096 23.09 32.5296 21.79C32.1896 21.55 32.1096 21.09 32.3396 20.75C32.5796 20.41 33.0496 20.33 33.3796 20.56C35.6196 22.11 37.0596 24.55 37.3496 27.24C37.3896 27.65 37.0996 28.02 36.6796 28.07C36.6696 28.07 36.6396 28.07 36.6196 28.07Z" fill="#F53838"/>
<path d="M19.4899 28.12C19.4599 28.12 19.4399 28.12 19.4099 28.12C18.9999 28.07 18.6999 27.7 18.7399 27.29C19.0099 24.6 20.4399 22.17 22.6499 20.6C22.9899 20.36 23.4599 20.44 23.6999 20.78C23.9399 21.12 23.8599 21.59 23.5199 21.83C21.6599 23.14 20.4599 25.19 20.2299 27.45C20.1999 27.83 19.8699 28.12 19.4899 28.12Z" fill="#F53838"/>
<path d="M28.06 37.61C26.58 37.61 25.17 37.27 23.85 36.61C23.48 36.42 23.33 35.97 23.52 35.6C23.71 35.23 24.16 35.08 24.53 35.27C26.69 36.36 29.29 36.38 31.47 35.33C31.84 35.15 32.29 35.31 32.47 35.68C32.65 36.05 32.49 36.5 32.12 36.68C30.84 37.3 29.48 37.61 28.06 37.61Z" fill="#F53838"/>
<path d="M28.0603 23.44C26.1103 23.44 24.5303 21.86 24.5303 19.91C24.5303 17.96 26.1103 16.38 28.0603 16.38C30.0103 16.38 31.5903 17.96 31.5903 19.91C31.5903 21.86 30.0003 23.44 28.0603 23.44ZM28.0603 17.89C26.9403 17.89 26.0303 18.8 26.0303 19.92C26.0303 21.04 26.9403 21.95 28.0603 21.95C29.1803 21.95 30.0903 21.04 30.0903 19.92C30.0903 18.8 29.1703 17.89 28.0603 17.89Z" fill="#F53838"/>
<path d="M20.8298 35.67C18.8798 35.67 17.2998 34.09 17.2998 32.14C17.2998 30.2 18.8798 28.61 20.8298 28.61C22.7798 28.61 24.3598 30.19 24.3598 32.14C24.3598 34.08 22.7798 35.67 20.8298 35.67ZM20.8298 30.11C19.7098 30.11 18.7998 31.02 18.7998 32.14C18.7998 33.26 19.7098 34.17 20.8298 34.17C21.9498 34.17 22.8598 33.26 22.8598 32.14C22.8598 31.02 21.9498 30.11 20.8298 30.11Z" fill="#F53838"/>
<path d="M35.1696 35.67C33.2196 35.67 31.6396 34.09 31.6396 32.14C31.6396 30.2 33.2196 28.61 35.1696 28.61C37.1196 28.61 38.6996 30.19 38.6996 32.14C38.6896 34.08 37.1096 35.67 35.1696 35.67ZM35.1696 30.11C34.0496 30.11 33.1396 31.02 33.1396 32.14C33.1396 33.26 34.0496 34.17 35.1696 34.17C36.2896 34.17 37.1996 33.26 37.1996 32.14C37.1896 31.02 36.2896 30.11 35.1696 30.11Z" fill="#F53838"/>
</svg>
