<?xml version="1.0" standalone="no"?>
<!DOCTYPE svg PUBLIC "-//W3C//DTD SVG 20010904//EN"
 "http://www.w3.org/TR/2001/REC-SVG-20010904/DTD/svg10.dtd">
<svg version="1.0" xmlns="http://www.w3.org/2000/svg"
 width="350.000000pt" height="306.000000pt" viewBox="0 0 350.000000 306.000000"
 preserveAspectRatio="xMidYMid meet">

<g transform="translate(0.000000,306.000000) scale(0.100000,-0.100000)"
fill="#000000" stroke="none">
<path d="M1394 2821 c17 -19 17 -19 -3 -14 -12 3 -21 9 -21 14 0 12 -31 11
-71 -3 l-33 -11 42 -18 c29 -13 42 -24 42 -38 0 -18 7 -19 98 -18 79 2 111 -3
170 -22 39 -13 72 -28 72 -33 0 -5 5 -6 11 -2 7 4 9 -1 7 -12 -2 -11 -11 -18
-21 -16 -10 2 -17 -4 -17 -13 0 -9 -9 -15 -25 -15 l-25 0 20 -32 c11 -18 20
-39 20 -45 0 -15 -56 -18 -65 -3 -10 17 -76 29 -126 23 -57 -7 -63 -18 -15
-27 46 -9 144 -63 157 -87 6 -11 8 -28 6 -37 -3 -12 -5 -10 -6 6 l-1 23 -27
-26 c-38 -35 -58 -39 -90 -20 -16 9 -57 23 -93 33 -47 13 -68 23 -76 40 -15
31 -60 56 -68 37 -2 -7 1 -18 7 -24 6 -6 8 -13 5 -16 -9 -9 -142 29 -154 44
-13 16 -154 23 -154 7 0 -5 -9 -1 -19 8 -16 15 -25 16 -61 6 -47 -13 -59 -8
-40 15 16 19 3 20 -16 1 -17 -18 -18 -33 -1 -39 10 -4 9 -6 0 -6 -17 -1 -17
-28 0 -34 8 -3 6 -11 -8 -27 -26 -29 -64 -44 -80 -30 -8 7 -18 4 -33 -11 -12
-11 -22 -23 -22 -28 0 -4 -12 -21 -27 -37 -90 -97 -105 -331 -38 -619 17 -74
38 -182 37 -192 0 -5 9 -18 20 -30 12 -13 19 -26 15 -29 -5 -6 47 -116 71
-148 15 -20 32 -66 24 -66 -4 0 -17 17 -29 38 -22 36 -23 36 -17 7 4 -16 10
-34 14 -40 4 -5 11 -23 15 -40 26 -94 81 -203 125 -246 22 -22 44 -39 49 -39
5 0 40 -39 79 -87 39 -49 87 -105 106 -125 44 -45 47 -64 8 -44 -16 8 -34 21
-41 30 -10 12 -19 10 -68 -17 -31 -18 -64 -45 -74 -61 -23 -37 -33 -100 -21
-122 6 -11 7 -27 1 -41 -7 -20 -5 -23 14 -24 17 -1 18 -2 4 -6 -9 -2 -15 -8
-12 -13 3 -5 -9 -19 -25 -32 -81 -62 -91 -74 -114 -140 l-22 -67 28 1 c31 1
48 22 86 103 13 28 35 62 49 77 14 14 22 31 19 36 -3 5 3 12 14 15 20 5 20 5
1 -21 -18 -27 -18 -52 0 -52 5 0 9 9 9 19 0 21 32 39 38 21 6 -18 44 -50 54
-44 14 9 9 24 -8 24 -8 0 -12 5 -9 10 4 6 1 9 -6 8 -6 -2 -13 2 -16 9 -2 7 12
16 34 22 53 15 56 14 74 -23 l15 -34 -42 -42 c-23 -23 -47 -39 -53 -36 -6 4
-11 2 -11 -4 0 -7 -6 -10 -12 -8 -12 4 -38 -14 -38 -26 0 -3 9 -6 20 -6 11 0
20 -4 20 -10 0 -5 -7 -7 -15 -4 -8 4 -15 1 -15 -5 0 -6 10 -11 21 -11 12 0 27
-7 33 -16 10 -13 16 -13 41 -3 27 11 28 12 10 18 -51 16 -10 83 52 85 36 1 38
-1 41 -31 3 -33 -31 -113 -49 -113 -6 0 -8 -4 -4 -9 10 -17 -12 -21 -25 -6 -7
8 -21 15 -31 15 -11 0 -19 5 -19 10 0 16 -42 11 -63 -8 -18 -16 -19 -16 -17 3
4 35 0 55 -10 55 -5 0 -10 -7 -10 -15 0 -12 -8 -14 -40 -9 -24 4 -40 3 -40 -3
0 -6 -11 -8 -25 -5 -15 2 -25 0 -25 -7 0 -6 10 -11 22 -11 21 0 21 0 2 -15
-17 -13 -15 -13 18 0 50 20 74 19 98 -5 20 -20 20 -22 4 -55 -9 -20 -13 -43
-9 -56 7 -21 7 -21 25 7 l19 28 6 -27 7 -27 145 0 c131 0 143 1 129 16 -9 8
-16 22 -16 30 0 8 -5 23 -12 34 -15 24 -4 37 17 20 9 -7 13 -15 11 -18 -3 -2
6 -19 20 -37 18 -24 21 -34 12 -38 -7 -3 474 -6 1070 -6 l1083 -1 -3 261 c-3
224 -5 262 -19 272 -9 7 -21 23 -28 35 -7 13 -28 30 -47 38 -22 9 -34 21 -34
33 0 17 -4 18 -42 9 -23 -5 -46 -14 -50 -21 -6 -9 -8 -8 -8 3 0 13 -1 13 -11
0 -8 -11 -12 -12 -16 -2 -2 6 -9 10 -13 7 -5 -3 -16 7 -24 22 -8 15 -29 42
-45 60 -17 18 -31 39 -31 48 0 10 -5 13 -12 9 -10 -6 -10 -4 0 8 16 20 129 31
200 20 28 -5 52 -5 52 -1 0 10 -19 15 -101 29 -103 18 -176 -10 -276 -103 -18
-17 -33 -28 -33 -24 0 12 65 77 77 77 7 0 13 4 13 10 0 18 83 52 140 57 54 5
56 7 83 52 15 25 35 58 45 73 20 32 12 44 -18 28 -25 -13 -39 -5 -22 12 30 30
-3 121 -41 116 -21 -3 -80 -38 -64 -38 14 0 -21 -55 -67 -104 -24 -26 -49 -45
-55 -41 -6 3 -11 24 -11 45 0 21 -4 42 -10 45 -5 3 -10 15 -10 25 0 38 -23 33
-68 -14 -24 -26 -47 -44 -51 -40 -3 4 0 9 7 11 17 6 15 23 -3 23 -12 0 -14 8
-9 40 6 35 4 39 -10 34 -10 -4 -16 -1 -16 9 0 9 9 18 19 22 11 3 25 13 33 22
7 9 9 14 3 12 -5 -3 -40 -20 -76 -37 -65 -31 -67 -33 -71 -74 -3 -24 0 -50 5
-59 8 -13 0 -31 -31 -79 -56 -83 -54 -130 6 -130 41 0 61 19 94 90 32 72 43
83 51 52 3 -10 6 -5 7 13 2 30 2 30 10 5 l8 -25 1 26 c1 30 26 46 35 23 10
-27 6 -60 -11 -95 -9 -19 -18 -42 -18 -51 -1 -10 -10 -27 -20 -38 -14 -15 -22
-17 -37 -9 -14 8 -31 6 -65 -7 -37 -14 -49 -15 -65 -5 -16 10 -19 10 -16 -1 3
-9 24 -13 65 -13 34 0 59 3 56 7 -2 4 3 5 11 2 19 -7 19 -12 3 -40 -42 -71
-116 -135 -101 -86 5 14 4 14 -4 2 -6 -8 -9 -17 -6 -21 6 -10 -58 -79 -68 -73
-4 3 -6 9 -3 14 3 5 -4 26 -15 47 -15 26 -19 30 -15 13 23 -91 24 -105 4 -126
-10 -11 -35 -26 -54 -34 -19 -8 -35 -17 -35 -22 0 -4 -4 -8 -10 -8 -19 0 -10
21 15 32 30 14 32 24 5 31 -25 6 -36 34 -23 55 13 21 -18 52 -52 52 -14 0 -29
8 -35 19 -15 29 -13 34 17 28 15 -3 38 0 52 6 15 5 30 9 34 8 5 -1 5 4 1 10
-5 9 -2 10 12 5 13 -5 16 -4 9 3 -7 6 -28 5 -64 -4 -29 -8 -58 -12 -64 -8 -10
6 -31 -14 -265 -245 -78 -78 -147 -142 -154 -142 -6 0 -17 -8 -25 -18 -9 -10
-12 -11 -7 -2 6 12 4 13 -7 3 -7 -7 -32 -13 -55 -13 -24 0 -46 -4 -49 -10 -3
-5 -11 -10 -17 -10 -7 0 -6 6 2 15 11 13 8 15 -16 16 -16 1 -41 1 -56 0 -34
-1 -34 1 -3 56 27 45 39 99 25 108 -20 12 6 42 58 67 83 39 319 198 295 198
-6 0 -26 -12 -46 -27 -86 -66 -177 -113 -177 -92 0 11 44 56 85 90 11 8 61 61
110 117 50 57 117 124 150 151 33 27 78 66 100 88 68 64 122 103 143 103 12 0
24 5 28 12 5 8 2 9 -9 5 -27 -10 -20 10 16 42 41 40 54 40 26 0 l-22 -31 22
11 c12 7 30 9 40 6 14 -4 21 2 30 25 6 17 7 39 2 48 -4 9 -15 31 -23 48 -15
31 -15 32 8 45 33 17 54 52 43 70 -7 12 -9 11 -9 -2 0 -9 -8 -24 -19 -33 -18
-16 -19 -15 -25 18 -4 19 -12 38 -18 42 -8 5 -9 1 -4 -12 21 -50 4 -119 -39
-154 -19 -16 -27 -9 -29 24 0 14 -3 26 -6 26 -3 0 -6 28 -7 62 -1 35 -7 64
-12 66 -6 2 -11 12 -11 22 0 10 -4 22 -10 25 -5 3 -10 1 -10 -5 0 -6 -5 -8
-11 -5 -6 4 -7 19 -4 36 9 38 -3 56 -20 32 -7 -10 -17 -15 -21 -10 -4 4 -2 7
4 7 6 0 15 15 21 33 13 39 0 159 -20 183 -7 8 -12 29 -11 46 1 24 -2 28 -8 18
-8 -13 -10 -13 -10 0 0 8 3 25 6 38 5 18 9 20 20 11 11 -9 14 -8 14 5 0 9 -6
16 -14 16 -16 0 -46 -26 -46 -41 0 -5 -7 -9 -16 -9 -14 0 -15 -19 -10 -167 5
-146 4 -161 -7 -115 -13 55 -47 102 -76 102 -14 -1 -14 -2 2 -11 22 -13 22
-24 -5 -54 -20 -23 -22 -23 -34 -7 -7 9 -14 31 -14 47 -1 17 -4 24 -7 18 -9
-24 -22 -13 -29 25 -4 20 -13 55 -21 77 -8 22 -27 90 -43 151 -16 62 -48 165
-70 230 -43 125 -47 145 -28 126 18 -18 48 -15 48 5 0 16 -22 68 -59 143 -10
19 -24 34 -31 32 -9 -2 -11 7 -7 34 5 31 2 39 -22 60 -16 13 -47 54 -69 91
-43 72 -90 132 -79 100 4 -10 2 -28 -4 -39 -7 -12 -7 -18 -1 -14 15 9 21 -16
10 -37 -7 -14 -5 -22 9 -33 10 -7 13 -14 8 -14 -11 0 -82 46 -104 67 -7 8 -26
17 -41 20 -18 3 -27 10 -23 18 3 9 -2 12 -15 8 -11 -2 -23 0 -26 6 -4 6 -18
11 -30 11 -13 0 -29 7 -36 15 -7 8 -19 15 -26 15 -8 0 -14 4 -14 9 0 4 -20 14
-45 21 -43 12 -70 30 -45 30 6 0 8 5 5 10 -3 6 -25 10 -47 10 -40 0 -41 -1
-24 -19z m362 -246 c20 -19 4 -20 -22 0 -12 9 -14 14 -6 15 7 0 20 -7 28 -15z
m177 -160 c54 -52 125 -210 125 -278 0 -20 12 -61 27 -93 15 -31 29 -68 31
-83 3 -14 16 -57 30 -94 l24 -68 -30 21 c-16 12 -30 27 -30 33 0 7 -4 6 -9 -2
-8 -12 -11 -8 -17 15 -4 16 -15 40 -26 53 -10 13 -18 31 -18 40 0 11 -14 21
-44 29 -32 8 -49 19 -59 39 -7 16 -19 27 -26 25 -7 -1 -10 2 -7 7 4 5 2 12 -4
16 -5 3 -8 31 -5 63 4 60 -3 72 -42 72 -14 0 -24 8 -29 23 -4 12 -20 35 -35
51 -16 17 -29 38 -29 48 0 17 1 18 25 2 14 -9 30 -24 36 -33 8 -12 9 -4 5 31
-4 35 -2 49 11 60 15 11 16 11 10 -4 -5 -13 -1 -18 13 -18 17 0 18 3 8 31 -8
25 -8 33 3 40 21 13 23 12 62 -26z m122 -35 c3 -5 1 -10 -4 -10 -6 0 -11 5
-11 10 0 6 2 10 4 10 3 0 8 -4 11 -10z m-922 -174 c5 -11 14 -13 39 -6 58 14
108 19 108 10 0 -10 89 -11 105 -2 19 11 79 0 104 -19 14 -11 32 -17 43 -14
10 4 18 2 18 -4 0 -6 13 -11 29 -11 16 0 34 -6 40 -13 9 -11 2 -18 -30 -32
-22 -10 -70 -38 -107 -62 -37 -23 -73 -43 -79 -43 -7 0 -18 -9 -25 -20 -7 -11
-19 -20 -26 -20 -16 0 -102 -89 -102 -106 0 -8 14 -29 31 -49 23 -25 37 -34
50 -30 13 4 21 1 25 -12 3 -10 12 -31 21 -46 8 -16 13 -31 10 -34 -3 -3 5 -17
19 -31 13 -15 24 -29 24 -33 0 -17 91 -52 166 -64 67 -11 90 -12 105 -2 10 6
19 15 19 19 0 5 10 8 23 8 13 0 46 11 72 25 63 31 95 38 173 37 53 -1 66 -5
82 -24 28 -35 44 -101 31 -126 -6 -12 -12 -34 -13 -49 -1 -15 -8 -33 -16 -38
-10 -8 -11 -17 -3 -38 6 -15 16 -27 22 -27 7 0 10 -28 7 -87 -3 -82 -2 -88 17
-88 14 0 19 6 17 18 -2 9 2 17 8 17 5 0 10 -9 10 -20 0 -11 7 -20 15 -20 24 0
18 -53 -10 -86 -14 -16 -27 -36 -30 -45 -4 -12 -19 -17 -55 -18 -27 0 -52 4
-55 9 -4 6 -11 8 -16 5 -5 -4 -10 0 -11 7 -6 54 -20 83 -55 112 -24 21 -37 26
-45 18 -8 -8 -6 -15 6 -27 32 -32 18 -58 -23 -42 -32 12 -91 -8 -91 -31 0 -7
-10 -16 -22 -21 -35 -12 -148 -14 -148 -2 0 6 5 11 12 11 6 0 8 3 5 6 -4 4
-13 2 -21 -5 -11 -9 -20 -6 -45 15 -46 38 -41 63 24 109 l55 40 -3 52 c-1 31
-7 55 -14 58 -7 2 -13 16 -13 31 0 23 -3 25 -25 20 -16 -4 -25 -2 -25 5 0 7
-3 10 -6 6 -3 -3 8 -24 26 -45 20 -26 30 -48 28 -63 -3 -21 -8 -24 -41 -21
-21 2 -45 -2 -52 -8 -8 -7 -20 -8 -26 -4 -7 4 -9 3 -6 -3 7 -11 -66 -43 -97
-43 -9 0 -24 -6 -31 -14 -8 -7 -35 -17 -60 -20 -25 -4 -43 -11 -40 -17 4 -5 1
-9 -4 -9 -6 0 -11 -8 -11 -18 0 -28 60 -79 102 -86 30 -5 38 -12 43 -36 5 -25
-1 -36 -47 -85 -50 -53 -55 -56 -81 -46 -26 10 -29 9 -41 -20 -16 -38 -25 -27
-33 41 -6 52 -25 64 -31 19 -2 -13 -8 -30 -14 -36 -6 -7 -8 -20 -4 -28 7 -18
-10 -20 -18 -2 -3 6 -3 2 0 -10 5 -23 -9 -32 -21 -13 -3 6 -11 10 -17 10 -6 0
0 -10 13 -23 13 -13 26 -22 29 -21 3 1 6 -9 6 -22 2 -23 0 -22 -25 10 -31 39
-102 124 -116 140 -5 6 -31 43 -56 81 -63 97 -84 190 -57 250 6 14 14 21 17
16 4 -5 32 -5 70 1 58 9 66 8 79 -9 11 -13 16 -15 19 -5 3 7 18 27 34 45 92
100 114 252 52 363 -7 12 -10 24 -6 27 10 11 -19 126 -34 131 -7 3 -21 2 -31
-3 -9 -5 -46 -17 -82 -25 -118 -29 -175 -44 -196 -51 -21 -6 -21 -5 -13 42 13
67 35 120 70 164 16 20 29 39 29 42 0 13 48 75 84 109 21 20 35 41 32 47 -9
14 38 54 72 62 45 11 60 10 65 -5z m1034 -438 c-3 -8 -6 -5 -6 6 -1 11 2 17 5
13 3 -3 4 -12 1 -19z m-544 -32 c3 -8 -1 -17 -9 -20 -9 -4 -14 1 -14 14 0 23
15 27 23 6z m624 -239 c6 -92 -3 -143 -17 -97 -5 14 -8 47 -9 73 -1 27 -6 57
-11 68 -8 13 -7 25 1 40 18 35 31 7 36 -84z m123 88 c0 -8 -4 -15 -10 -15 -5
0 -10 7 -10 15 0 8 5 15 10 15 6 0 10 -7 10 -15z m-1420 -134 c7 -13 7 -22 0
-26 -15 -9 -30 4 -30 26 0 25 16 25 30 0z m1327 -118 c-3 -10 -5 -4 -5 12 0
17 2 24 5 18 2 -7 2 -21 0 -30z m259 -8 c24 -22 34 -75 13 -75 -5 0 -8 4 -5 9
3 5 -4 11 -16 14 -25 7 -38 -7 -38 -41 0 -29 -85 -161 -96 -149 -1 1 2 25 7
52 5 28 11 67 14 87 3 21 13 44 21 53 14 13 14 15 0 15 -19 0 -21 20 -3 42 25
32 64 29 103 -7z m74 -100 c0 -2 -10 -9 -22 -15 -22 -11 -22 -10 -4 4 21 17
26 19 26 11z m-336 -38 c-7 -18 -24 -23 -24 -8 0 22 13 42 22 33 5 -5 6 -16 2
-25z m111 -76 c-3 -12 -14 -21 -23 -21 -16 1 -16 2 1 14 9 7 17 19 17 26 0 7
3 11 6 7 3 -3 3 -15 -1 -26z m-131 -45 c-3 -17 -13 -42 -21 -56 -13 -24 -13
-24 -8 -2 4 13 2 29 -5 36 -8 11 -7 18 4 29 8 8 13 17 11 19 -3 3 2 5 10 5 12
0 14 -7 9 -31z m86 -7 c0 -24 -4 -38 -10 -34 -5 3 -10 22 -10 41 0 19 5 34 10
34 6 0 10 -18 10 -41z m-123 -41 c-3 -13 1 -32 9 -42 14 -19 20 -56 8 -43 -8
8 -39 -31 -49 -61 -9 -29 -122 -179 -140 -186 -7 -2 3 19 22 47 55 81 113 205
139 295 6 22 16 13 11 -10z m-328 -231 c6 -8 9 -33 7 -57 -3 -42 -17 -60 -45
-60 -8 0 -12 -3 -8 -6 9 -9 -84 -54 -111 -54 -12 0 -31 5 -41 11 -22 14 -72 4
-68 -14 1 -6 -6 -12 -16 -12 -10 0 -21 -6 -26 -13 -5 -9 -28 -11 -80 -8 -40 2
-75 7 -78 10 -4 3 -1 6 5 6 6 0 9 6 6 14 -3 8 3 23 14 34 22 22 113 47 143 39
12 -3 22 0 26 9 3 8 9 14 14 14 4 0 20 11 35 25 16 15 39 25 55 25 16 0 29 5
29 11 0 5 4 8 9 5 4 -3 16 3 26 14 21 23 86 27 104 7z m1036 -47 c-10 -11 -22
-20 -28 -20 -5 0 1 9 14 20 31 25 37 25 14 0z m-980 -10 c-3 -5 -11 -10 -16
-10 -6 0 -7 5 -4 10 3 6 11 10 16 10 6 0 7 -4 4 -10z m-790 -137 c-2 -6 1 -13
8 -16 7 -2 2 -9 -11 -16 -12 -6 -22 -19 -22 -29 0 -11 -5 -7 -15 12 -8 15 -15
51 -15 80 l1 51 29 -35 c16 -19 28 -40 25 -47z m1853 -174 c-7 -5 -20 -2 -29
7 -14 12 -18 13 -22 2 -3 -7 -6 -1 -6 14 -1 34 9 59 20 52 5 -3 10 16 10 43 1
43 2 45 9 18 7 -27 8 -25 11 20 7 125 13 116 16 -24 3 -92 0 -126 -9 -132z
m-1798 174 c0 -32 -33 -5 -43 36 l-6 23 25 -23 c13 -12 24 -28 24 -36z m743
-23 c-6 -21 -18 -26 -28 -11 -4 7 17 28 32 31 0 0 -1 -9 -4 -20z m-883 -34 c0
-2 -7 -7 -16 -10 -8 -3 -12 -2 -9 4 6 10 25 14 25 6z m98 -14 c-33 -20 -36
-47 -8 -62 11 -6 20 -15 20 -20 0 -16 -37 -11 -44 6 -17 44 3 94 37 94 21 -1
20 -2 -5 -18z m177 -12 c3 -6 -1 -7 -9 -4 -18 7 -21 14 -7 14 6 0 13 -4 16
-10z m-298 -16 c-3 -3 -12 -4 -19 -1 -8 3 -5 6 6 6 11 1 17 -2 13 -5z m393
-64 c13 -8 13 -10 -2 -10 -9 0 -20 5 -23 10 -8 13 5 13 25 0z m77 -16 c-3 -3
-12 -4 -19 -1 -8 3 -5 6 6 6 11 1 17 -2 13 -5z m932 -72 c18 -64 6 -62 -18 3
-25 65 -26 75 -8 55 8 -8 19 -35 26 -58z m-839 44 c0 -25 -26 -77 -41 -81 -18
-6 -18 -21 -3 -60 6 -15 -1 -12 -29 13 -21 17 -44 32 -52 32 -7 0 -15 3 -17 8
-1 4 -23 14 -48 22 -39 13 -45 19 -48 45 l-3 30 121 0 c67 0 120 -4 120 -9z
m-406 -51 c-10 -8 -41 -26 -69 -41 l-50 -26 30 26 c17 14 35 26 40 26 6 0 21
9 35 20 14 10 27 17 29 14 3 -2 -4 -11 -15 -19z m180 -62 c148 -120 169 -128
314 -119 76 4 103 3 100 -6 -5 -13 -22 -17 -103 -24 -33 -3 -65 -7 -72 -9 -17
-6 -83 13 -128 37 -59 31 -151 104 -180 142 -48 63 -26 56 69 -21z m-69 -15
c13 -13 33 -49 45 -81 12 -32 39 -76 59 -98 21 -21 33 -39 26 -39 -18 0 -99
55 -138 94 -32 32 -37 43 -37 85 0 67 8 73 45 39z m1430 12 c-3 -5 -12 -10
-18 -10 -7 0 -6 4 3 10 19 12 23 12 15 0z m-925 -20 c0 -5 -10 -10 -22 -10
-19 0 -20 2 -8 10 19 13 30 13 30 0z m-757 -15 c-3 -9 -8 -14 -10 -11 -3 3 -2
9 2 15 9 16 15 13 8 -4z m934 -89 c-8 -8 -17 -12 -21 -9 -3 4 -6 1 -6 -5 0 -7
-12 -12 -27 -11 -17 0 -22 3 -13 6 8 4 20 13 26 21 6 8 16 12 22 8 6 -3 14 -1
17 5 4 5 9 8 12 5 3 -3 -1 -12 -10 -20z m-947 -20 c0 -3 -4 -8 -10 -11 -5 -3
-10 -1 -10 4 0 6 5 11 10 11 6 0 10 -2 10 -4z m938 -46 c7 -11 9 -20 4 -20
-10 0 -32 22 -32 32 0 15 15 8 28 -12z m-941 -22 c-3 -8 -6 -5 -6 6 -1 11 2
17 5 13 3 -3 4 -12 1 -19z m796 -45 c-7 -2 -21 -2 -30 0 -10 3 -4 5 12 5 17 0
24 -2 18 -5z"/>
<path d="M1892 2354 c4 -22 48 -39 48 -19 0 8 -7 15 -15 15 -8 0 -15 5 -15 10
0 6 -5 10 -11 10 -6 0 -9 -7 -7 -16z"/>
<path d="M1960 2321 c0 -5 5 -13 10 -16 6 -3 10 -2 10 4 0 5 -4 13 -10 16 -5
3 -10 2 -10 -4z"/>
<path d="M1910 2273 c0 -43 9 -39 15 6 2 17 0 31 -5 31 -6 0 -10 -16 -10 -37z"/>
<path d="M1448 1243 c7 -3 16 -2 19 1 4 3 -2 6 -13 5 -11 0 -14 -3 -6 -6z"/>
<path d="M1495 2820 c3 -5 13 -10 21 -10 8 0 14 5 14 10 0 6 -9 10 -21 10 -11
0 -17 -4 -14 -10z"/>
<path d="M993 2785 c-33 -15 -53 -30 -53 -40 0 -14 4 -13 26 4 15 12 30 21 35
21 5 0 23 9 41 20 45 27 15 24 -49 -5z"/>
<path d="M863 2682 c-52 -49 -93 -102 -93 -121 0 -26 30 -8 53 32 14 23 44 61
66 84 57 58 36 62 -26 5z"/>
<path d="M1370 2690 c-24 -15 -7 -19 20 -5 15 8 19 14 10 14 -8 1 -22 -3 -30
-9z"/>
<path d="M1036 2673 c-4 -9 -1 -20 6 -25 19 -12 28 -10 28 7 0 8 -5 15 -11 15
-5 0 -7 5 -4 10 3 6 2 10 -3 10 -6 0 -13 -8 -16 -17z"/>
<path d="M2026 2486 c3 -8 12 -17 20 -20 12 -4 12 -2 4 14 -12 23 -32 27 -24
6z"/>
<path d="M2220 2350 c0 -5 5 -10 10 -10 6 0 10 5 10 10 0 6 -4 10 -10 10 -5 0
-10 -4 -10 -10z"/>
<path d="M2580 1496 c0 -2 7 -7 16 -10 8 -3 12 -2 9 4 -6 10 -25 14 -25 6z"/>
<path d="M2621 1156 c-9 -11 -9 -15 1 -19 19 -6 -62 -82 -152 -143 -54 -36
-76 -58 -77 -74 l-2 -22 22 19 c12 11 34 28 50 38 26 17 27 17 20 -1 -4 -10
15 4 43 31 27 28 62 61 78 75 27 24 28 24 15 3 -8 -13 -17 -23 -21 -23 -12 0
-10 -14 5 -34 16 -21 48 -12 41 12 -5 14 -3 14 6 -1 7 -11 9 -33 5 -56 -5 -31
-12 -39 -41 -50 -19 -7 -34 -17 -34 -22 0 -5 -4 -9 -10 -9 -5 0 -10 9 -10 20
0 11 -4 20 -10 20 -15 0 -12 -46 4 -59 12 -10 19 -8 36 9 12 12 24 19 27 16
10 -9 -35 -66 -119 -153 -18 -18 -27 -33 -20 -33 22 0 231 222 215 227 -7 3
-13 10 -13 16 0 8 3 8 12 -1 18 -18 48 4 47 36 -1 17 -3 20 -6 10 -2 -10 -10
-18 -17 -18 -10 0 -12 16 -9 63 3 34 8 64 11 67 11 8 13 52 3 45 -5 -3 -13 0
-16 6 -4 5 -14 8 -23 4 -8 -3 -19 0 -24 7 -6 10 -8 10 -8 -2 0 -12 -2 -12 -9
-2 -6 10 -10 10 -20 -2z m49 -36 c0 -5 -2 -10 -4 -10 -3 0 -8 5 -11 10 -3 6
-1 10 4 10 6 0 11 -4 11 -10z"/>
<path d="M3320 939 c-13 -24 -4 -41 10 -19 10 16 13 40 5 40 -2 0 -9 -9 -15
-21z"/>
<path d="M2351 835 c-13 -14 -19 -25 -14 -25 5 0 20 11 33 25 13 14 19 25 14
25 -5 0 -20 -12 -33 -25z"/>
<path d="M2884 815 c-19 -14 -18 -14 4 -15 13 0 22 6 22 15 0 19 -1 19 -26 0z"/>
<path d="M2665 775 c-21 -17 -44 -25 -75 -27 l-45 -1 43 -4 c25 -3 50 1 58 8
11 9 18 9 32 -3 17 -16 42 -14 42 3 0 4 -7 6 -15 3 -17 -7 -21 11 -5 21 12 7
13 25 3 25 -5 -1 -21 -12 -38 -25z"/>
<path d="M2256 754 c-23 -23 -20 -30 4 -9 11 10 20 20 20 22 0 7 -9 2 -24 -13z"/>
<path d="M3310 704 c0 -9 7 -14 17 -12 25 5 28 28 4 28 -12 0 -21 -6 -21 -16z"/>
<path d="M3395 710 c-3 -5 -1 -10 4 -10 6 0 11 5 11 10 0 6 -2 10 -4 10 -3 0
-8 -4 -11 -10z"/>
<path d="M2350 700 c0 -5 5 -10 10 -10 6 0 10 5 10 10 0 6 -4 10 -10 10 -5 0
-10 -4 -10 -10z"/>
<path d="M2260 650 c0 -5 7 -10 15 -10 8 0 15 5 15 10 0 6 -7 10 -15 10 -8 0
-15 -4 -15 -10z"/>
<path d="M2201 611 c-14 -4 -27 -13 -29 -20 -5 -16 35 -5 56 15 14 15 10 16
-27 5z"/>
<path d="M729 277 c-25 -23 -51 -58 -58 -77 -7 -19 -17 -44 -21 -55 -5 -11
-12 -42 -15 -69 -4 -27 -9 -55 -12 -62 -4 -11 6 -14 41 -14 44 0 45 1 40 28
-9 45 13 150 47 218 17 36 29 67 27 69 -2 3 -24 -15 -49 -38z"/>
<path d="M1010 296 c0 -9 5 -16 10 -16 6 0 10 4 10 9 0 6 -4 13 -10 16 -5 3
-10 -1 -10 -9z"/>
<path d="M1805 290 c-3 -5 -2 -10 4 -10 5 0 13 5 16 10 3 6 2 10 -4 10 -5 0
-13 -4 -16 -10z"/>
<path d="M1115 160 c3 -5 8 -10 11 -10 2 0 4 5 4 10 0 6 -5 10 -11 10 -5 0 -7
-4 -4 -10z"/>
</g>
</svg>
