<svg width="34" height="34" viewBox="0 0 34 34" fill="none" xmlns="http://www.w3.org/2000/svg">
<rect x="0.5" y="0.5" width="33" height="33" rx="11.5" fill="#F53838" stroke="#F53838"/>
<path d="M17.0004 6.81836C14.2353 6.81836 13.8883 6.83045 12.8023 6.87987C11.7184 6.92951 10.9785 7.10112 10.3311 7.3529C9.66148 7.61297 9.09344 7.96084 8.52752 8.527C7.96117 9.09293 7.6133 9.661 7.3524 10.3304C7.09999 10.9781 6.92817 11.7181 6.87939 12.8017C6.83081 13.8877 6.81808 14.235 6.81808 17.0002C6.81808 19.7654 6.83039 20.1114 6.8796 21.1974C6.92945 22.2814 7.10105 23.0212 7.35261 23.6686C7.61288 24.3383 7.96075 24.9064 8.52688 25.4723C9.09259 26.0387 9.66063 26.3874 10.3299 26.6474C10.9777 26.8992 11.7177 27.0708 12.8014 27.1205C13.8874 27.1699 14.2343 27.182 16.9992 27.182C19.7645 27.182 20.1105 27.1699 21.1965 27.1205C22.2804 27.0708 23.0211 26.8992 23.6689 26.6474C24.3383 26.3874 24.9055 26.0387 25.4712 25.4723C26.0376 24.9064 26.3855 24.3383 26.6464 23.6688C26.8967 23.0212 27.0685 22.2811 27.1194 21.1976C27.1682 20.1116 27.1809 19.7654 27.1809 17.0002C27.1809 14.235 27.1682 13.8879 27.1194 12.8019C27.0685 11.7179 26.8967 10.9781 26.6464 10.3307C26.3855 9.661 26.0376 9.09293 25.4712 8.527C24.9049 7.96063 24.3386 7.61275 23.6683 7.3529C23.0192 7.10112 22.2789 6.92951 21.195 6.87987C20.109 6.83045 19.7632 6.81836 16.9973 6.81836H17.0004ZM16.0871 8.65321C16.3582 8.65278 16.6606 8.65321 17.0004 8.65321C19.7189 8.65321 20.0411 8.66297 21.1146 8.71175C22.1073 8.75715 22.6461 8.92303 23.005 9.06239C23.4801 9.24693 23.8189 9.46754 24.175 9.8239C24.5314 10.1803 24.752 10.5197 24.9369 10.9948C25.0763 11.3533 25.2424 11.8921 25.2876 12.8848C25.3363 13.9581 25.3469 14.2806 25.3469 16.9978C25.3469 19.7151 25.3363 20.0375 25.2876 21.1109C25.2422 22.1036 25.0763 22.6424 24.9369 23.0009C24.7524 23.476 24.5314 23.8144 24.175 24.1705C23.8187 24.5269 23.4803 24.7475 23.005 24.932C22.6465 25.072 22.1073 25.2375 21.1146 25.2829C20.0413 25.3317 19.7189 25.3423 17.0004 25.3423C14.2818 25.3423 13.9596 25.3317 12.8863 25.2829C11.8936 25.2371 11.3548 25.0712 10.9957 24.9318C10.5205 24.7473 10.1812 24.5267 9.82481 24.1703C9.46846 23.8139 9.24786 23.4754 9.0629 23C8.92354 22.6415 8.75745 22.1028 8.71227 21.11C8.66348 20.0367 8.65373 19.7143 8.65373 16.9953C8.65373 14.2763 8.66348 13.9556 8.71227 12.8823C8.75766 11.8895 8.92354 11.3508 9.0629 10.9918C9.24744 10.5167 9.46846 10.1773 9.82481 9.82093C10.1812 9.46457 10.5205 9.24397 10.9957 9.059C11.3546 8.919 11.8936 8.75354 12.8863 8.70794C13.8255 8.66551 14.1895 8.65278 16.0871 8.65066V8.65321ZM22.4352 10.3438C21.7607 10.3438 21.2135 10.8904 21.2135 11.5652C21.2135 12.2398 21.7607 12.787 22.4352 12.787C23.1098 12.787 23.657 12.2398 23.657 11.5652C23.657 10.8907 23.1098 10.3434 22.4352 10.3434V10.3438ZM17.0004 11.7714C14.1129 11.7714 11.7718 14.1126 11.7718 17.0002C11.7718 19.8878 14.1129 22.2279 17.0004 22.2279C19.888 22.2279 22.2282 19.8878 22.2282 17.0002C22.2282 14.1126 19.8877 11.7714 17.0002 11.7714H17.0004ZM17.0004 13.6062C18.8747 13.6062 20.3943 15.1257 20.3943 17.0002C20.3943 18.8745 18.8747 20.3941 17.0004 20.3941C15.126 20.3941 13.6066 18.8745 13.6066 17.0002C13.6066 15.1257 15.126 13.6062 17.0004 13.6062Z" fill="white"/>
</svg>
