<svg width="34" height="34" viewBox="0 0 34 34" fill="none" xmlns="http://www.w3.org/2000/svg">
<rect x="0.5" y="0.5" width="33" height="33" rx="11.5" fill="#F53838" stroke="#F53838"/>
<path fill-rule="evenodd" clip-rule="evenodd" d="M8.49112 7.0835C7.71363 7.0835 7.08334 7.71378 7.08334 8.49127V25.509C7.08334 26.2865 7.71363 26.9168 8.49112 26.9168H25.5089C26.2864 26.9168 26.9167 26.2865 26.9167 25.509V8.49127C26.9167 7.71378 26.2864 7.0835 25.5089 7.0835H8.49112ZM11.535 13.2427C12.4852 13.2427 13.2556 12.4724 13.2556 11.5222C13.2556 10.572 12.4852 9.80167 11.535 9.80167C10.5848 9.80167 9.81448 10.572 9.81448 11.5222C9.81448 12.4724 10.5848 13.2427 11.535 13.2427ZM14.8313 14.5143H17.6828V15.8206C17.6828 15.8206 18.4565 14.273 20.5619 14.273C22.44 14.273 23.9958 15.1982 23.9958 18.0182V23.9649H21.0408V18.7388C21.0408 17.0752 20.1527 16.8923 19.4759 16.8923C18.0714 16.8923 17.8309 18.1037 17.8309 18.9558V23.9649H14.8313V14.5143ZM13.0349 14.5143H10.0352V23.9649H13.0349V14.5143Z" fill="white"/>
</svg>
