<svg width="34" height="34" viewBox="0 0 34 34" fill="none" xmlns="http://www.w3.org/2000/svg">
<rect x="0.5" y="0.5" width="33" height="33" rx="11.5" fill="#F53838" stroke="#F53838"/>
<path fill-rule="evenodd" clip-rule="evenodd" d="M26.067 13.4369C26.0749 13.6409 26.0775 13.8449 26.0775 14.0489C26.0775 20.2348 21.7261 27.3761 13.7687 27.3761C11.3244 27.3761 9.05145 26.597 7.13641 25.2708C7.47493 25.3079 7.81873 25.3358 8.1678 25.3358C10.1945 25.3358 12.0612 24.5844 13.5419 23.3231C11.6488 23.2953 10.0503 21.932 9.49901 20.0772C9.76367 20.1328 10.0362 20.1607 10.3149 20.1607C10.708 20.1607 11.0896 20.1051 11.4554 19.9938C9.47437 19.5672 7.98227 17.6753 7.98227 15.4031C7.98227 15.3753 7.98227 15.366 7.98227 15.3474C8.5661 15.6906 9.23433 15.9038 9.9439 15.9316C8.78151 15.0877 8.01742 13.6502 8.01742 12.0272C8.01742 11.174 8.2302 10.3671 8.60477 9.67151C10.7379 12.5094 13.927 14.3736 17.5223 14.5683C17.4484 14.2252 17.4106 13.8636 17.4106 13.5019C17.4106 10.9144 19.3476 8.81836 21.7375 8.81836C22.9816 8.81836 24.1053 9.38417 24.894 10.293C25.8815 10.089 26.8065 9.69952 27.6435 9.16161C27.3191 10.256 26.6341 11.1739 25.739 11.7489C26.6148 11.6376 27.4501 11.3874 28.2247 11.0165C27.6435 11.9532 26.912 12.7784 26.067 13.4369Z" fill="white"/>
</svg>
