<svg width="34" height="34" viewBox="0 0 34 34" fill="none" xmlns="http://www.w3.org/2000/svg">
<rect x="0.5" y="0.5" width="33" height="33" rx="11.5" fill="#F53838" stroke="#F53838"/>
<path fill-rule="evenodd" clip-rule="evenodd" d="M17.958 6.4514C20.5583 6.57919 22.9813 7.65147 24.8319 9.50334C26.8059 11.4786 27.8925 14.1042 27.8914 16.8964C27.889 22.6585 23.1983 27.3467 17.4359 27.3467C15.269 27.3467 13.547 26.6809 12.4351 26.0747L6.89243 27.5279L8.37577 22.1126C7.4608 20.5278 6.97934 18.7301 6.98009 16.8881C6.98241 11.1263 11.6728 6.43848 17.4357 6.43848L17.958 6.4514ZM12.6919 24.1828L13.0092 24.3711C14.3435 25.1625 15.8729 25.5812 17.4323 25.5818H17.4359C22.2257 25.5818 26.1241 21.6852 26.126 16.8958C26.1269 14.575 25.2239 12.3926 23.5832 10.7509C21.9424 9.109 19.7605 8.20428 17.4393 8.20352C12.6458 8.20352 8.74733 12.0997 8.74541 16.8887C8.74476 18.53 9.20418 20.1284 10.0741 21.5113L10.2807 21.84L9.40281 25.0452L12.6919 24.1828ZM22.7033 19.3815C22.638 19.2725 22.4639 19.2072 22.2026 19.0765C21.9414 18.9458 20.657 18.3141 20.4175 18.2269C20.178 18.1398 20.0038 18.0963 19.8297 18.3576C19.6556 18.619 19.1549 19.2072 19.0024 19.3815C18.8501 19.5557 18.6977 19.5776 18.4365 19.4469C18.1752 19.3162 17.3334 19.0404 16.3356 18.1508C15.5589 17.4584 15.0346 16.6033 14.8822 16.3419C14.7299 16.0806 14.866 15.9392 14.9967 15.809C15.1143 15.692 15.258 15.504 15.3887 15.3515C15.5193 15.1991 15.5628 15.0901 15.6499 14.9159C15.737 14.7416 15.6934 14.5892 15.6281 14.4585C15.5628 14.3277 15.0403 13.0424 14.8227 12.5196C14.6105 12.0105 14.3952 12.0794 14.2348 12.0714C14.0826 12.0638 13.9083 12.0622 13.7341 12.0622C13.56 12.0622 13.2769 12.1275 13.0375 12.3889C12.798 12.6503 12.1231 13.2821 12.1231 14.5673C12.1231 15.8526 13.0592 17.0942 13.1899 17.2685C13.3205 17.4428 15.032 20.0801 17.6527 21.2113C18.276 21.4804 18.7627 21.641 19.1421 21.7613C19.7679 21.9601 20.3374 21.9321 20.7876 21.8648C21.2895 21.7898 22.3332 21.2331 22.5509 20.6232C22.7686 20.0132 22.7686 19.4904 22.7033 19.3815Z" fill="white"/>
</svg>
